<svg width="20" height="40" viewBox="0 0 20 40" fill="none" xmlns="http://www.w3.org/2000/svg">
<path d="M9.02344 0.0468712C6.64844 0.398434 4.92969 1.22656 3.39062 2.76562C2.15625 4.00781 1.36719 5.375 0.9375 7.04687C0.710938 7.89843 0.734375 8.39843 1 8.91406C1.35156 9.59375 2.07031 10 2.92188 10C3.53906 10 3.90625 9.85156 4.33594 9.41406C4.6875 9.07031 4.75781 8.9375 4.95312 8.28125C5.23438 7.32031 5.60938 6.61718 6.14844 6.01562C7.21875 4.83593 8.71875 4.22656 10.3047 4.3125C11.5312 4.39062 12.6719 4.89843 13.6328 5.78906C14.1875 6.3125 14.4609 6.38281 14.75 6.07031C15.0234 5.78125 14.9688 5.51562 14.5547 5.0625C13.8281 4.29687 12.6797 3.61718 11.5625 3.3125C10.7734 3.09375 9.13281 3.10937 8.33594 3.34375C6.10156 3.98437 4.45312 5.65625 3.82812 7.89843C3.65625 8.53906 3.53125 8.71093 3.14844 8.83593C2.78125 8.95312 2.23438 8.75 2.07031 8.4375C1.90625 8.125 1.92188 7.85156 2.14062 7.10156C2.53906 5.73437 3.21875 4.58593 4.20312 3.60156C7.45312 0.351559 12.6562 0.382809 15.8594 3.67187C16.6484 4.47656 17.2656 5.44531 17.6406 6.42968C18.2031 7.92968 18.1562 6.67187 18.1875 21.9141C18.2031 31.9609 18.1875 35.7891 18.125 36.1328C17.8906 37.3594 16.9141 38.3906 15.6719 38.7187C15.0938 38.875 4.91406 38.875 4.33594 38.7187C3.10156 38.3906 2.13281 37.3906 1.88281 36.1875C1.75781 35.6016 1.76562 19.0781 1.88281 18.5C2.11719 17.3906 2.92969 16.4844 4.0625 16.0391C4.36719 15.9219 4.85156 15.8984 7.77344 15.8594C10.9219 15.8125 11.1719 15.7969 11.7031 15.6328C14.7109 14.7344 16.6641 11.875 16.3203 8.875C16.2422 8.15625 16.1016 7.9375 15.6953 7.95312C15.2734 7.96093 15.125 8.1875 15.1562 8.76562C15.2344 10.0937 15.1016 10.8437 14.6172 11.8359C14.0312 13.0234 12.8984 14 11.6094 14.4297L10.9766 14.6406L7.61719 14.6875C4.44531 14.7344 4.22656 14.7422 3.74219 14.9062C2.39844 15.3516 1.25781 16.5078 0.835938 17.8516L0.664062 18.3984V27.3437V36.2891L0.835938 36.8359C1.25781 38.1797 2.39062 39.3281 3.74219 39.7891C4.25781 39.9609 4.29688 39.9609 9.79688 39.9844C15.1328 40.0078 15.3594 40 15.9609 39.8437C17.4766 39.4609 18.6953 38.3125 19.1641 36.8359L19.3359 36.2891V22.2656C19.3359 7.03906 19.3594 7.89062 18.8984 6.46875C18.4453 5.07812 17.6953 3.85937 16.6094 2.76562C15.2891 1.4375 13.7266 0.593746 11.8594 0.187496C11.3047 0.0703087 9.5 -0.0234413 9.02344 0.0468712Z" fill="black"/>
<path d="M5.42968 20.3125C5.10156 20.6719 5.35156 21.25 5.83593 21.25C6.16406 21.25 6.40624 21.0156 6.40624 20.7031C6.40624 20.2188 5.74999 19.9609 5.42968 20.3125Z" fill="black"/>
<path d="M8.17188 20.3281C8.10156 20.4219 8.04688 20.5938 8.04688 20.7031C8.04688 21.0391 8.25 21.25 8.58594 21.25C8.95312 21.25 9.14062 21.0625 9.14062 20.6875C9.14062 20.3438 8.94531 20.1562 8.57031 20.1562C8.36719 20.1562 8.25781 20.2031 8.17188 20.3281Z" fill="black"/>
<path d="M10.9922 20.2969C10.8125 20.4922 10.8203 20.9609 11 21.1172C11.0781 21.1953 11.2734 21.25 11.4297 21.25C11.75 21.25 11.9531 21.0391 11.9531 20.7031C11.9531 20.5938 11.8984 20.4219 11.8281 20.3281C11.6719 20.1094 11.1797 20.0859 10.9922 20.2969Z" fill="black"/>
<path d="M13.75 20.3125C13.3984 20.6641 13.6641 21.25 14.1641 21.25C14.4922 21.25 14.7109 21.0234 14.7109 20.7031C14.7109 20.2109 14.1016 19.9609 13.75 20.3125Z" fill="black"/>
<path d="M4.34375 22.7578C4.14844 22.8672 3.96875 23.0625 3.85156 23.2734C3.67969 23.6094 3.67188 23.6641 3.67188 25.7969C3.67188 27.8672 3.67969 27.9766 3.82812 28.125C4.03906 28.3359 4.46094 28.3281 4.65625 28.1172C4.78906 27.9688 4.80469 27.7734 4.84375 25.8672L4.88281 23.7891H10H15.1172V28.9063V34.0234H10H4.88281L4.84375 32.3359C4.8125 30.8438 4.78906 30.625 4.66406 30.4844C4.58594 30.3984 4.46094 30.3125 4.38281 30.2891C4.15625 30.2344 3.75781 30.4375 3.71094 30.6406C3.6875 30.7422 3.67188 31.6172 3.6875 32.5859L3.71094 34.3516L3.9375 34.6406C4.40625 35.2578 4.15625 35.2344 10 35.2344C15.8438 35.2344 15.5938 35.2578 16.0625 34.6406L16.2891 34.3516L16.3125 28.9844L16.3281 23.625L16.1484 23.2734C16.0312 23.0625 15.8516 22.8672 15.6562 22.7578L15.3516 22.5781H10H4.64844L4.34375 22.7578Z" fill="black"/>
<path d="M6.60938 25.1641L6.40625 25.3203V28.875C6.40625 32.3203 6.41406 32.4297 6.5625 32.5781C6.73438 32.75 7.03125 32.7813 7.26562 32.6563C7.50781 32.5313 7.57812 32.0781 7.57812 30.7188V29.4531H10H12.4219V30.7188C12.4219 32.0781 12.4922 32.5313 12.7344 32.6563C12.9688 32.7813 13.2656 32.75 13.4375 32.5781C13.5859 32.4297 13.5938 32.3203 13.5938 28.8828C13.5938 25.5 13.5859 25.3281 13.4453 25.2031C13.2344 25.0078 12.8359 25.0156 12.6328 25.2266C12.4688 25.3828 12.4609 25.4766 12.4375 26.836L12.4062 28.2813H10H7.59375L7.5625 26.8281L7.53906 25.375L7.32031 25.1875C7.05469 24.961 6.88281 24.9531 6.60938 25.1641Z" fill="black"/>
</svg>
