<svg width="40" height="40" viewBox="0 0 40 40" fill="none" xmlns="http://www.w3.org/2000/svg">
<path d="M3.33331 10C3.33331 6.31814 6.31808 3.33337 9.99998 3.33337H30C33.6818 3.33337 36.6666 6.31814 36.6666 10V30C36.6666 33.6819 33.6818 36.6667 30 36.6667H9.99998C6.31808 36.6667 3.33331 33.6819 3.33331 30V10Z" stroke="black" stroke-width="2" stroke-linecap="round" stroke-linejoin="round"/>
<path d="M20 27.4076C24.091 27.4076 27.4074 24.0912 27.4074 20.0002C27.4074 15.9092 24.091 12.5928 20 12.5928C15.909 12.5928 12.5926 15.9092 12.5926 20.0002C12.5926 24.0912 15.909 27.4076 20 27.4076Z" stroke="black" stroke-width="2" stroke-linecap="round" stroke-linejoin="round"/>
<path d="M30 10.0362V10" stroke="black" stroke-width="2" stroke-linecap="round" stroke-linejoin="round"/>
</svg>
