<svg width="40" height="40" viewBox="0 0 40 40" fill="none" xmlns="http://www.w3.org/2000/svg">
<path d="M25.1215 3.33337H14.8958C5.5555 3.33337 3.33331 5.55556 3.33331 14.8785V25.1042C3.33331 34.4444 5.53821 36.6667 14.8784 36.6667H25.1041C34.4445 36.6667 36.6666 34.4618 36.6666 25.1215V14.8959C36.6666 5.55556 34.4617 3.33337 25.1215 3.33337ZM30.243 27.1181H27.8125C26.8924 27.1181 26.6146 26.3715 24.9653 24.7222C23.5242 23.3334 22.9166 23.1597 22.5521 23.1597C22.0486 23.1597 21.9097 23.2986 21.9097 23.9931V26.1806C21.9097 26.7709 21.7187 27.1181 20.1736 27.1181C18.6743 27.0173 17.2203 26.5618 15.9314 25.7891C14.6426 25.0164 13.5557 23.9486 12.7604 22.6736C10.8722 20.3234 9.55849 17.5651 8.92363 14.6181C8.92363 14.2535 9.06248 13.9236 9.75696 13.9236H12.1875C12.8125 13.9236 13.0382 14.2014 13.2812 14.8438C14.4617 18.316 16.4757 21.3368 17.2916 21.3368C17.6041 21.3368 17.743 21.198 17.743 20.4167V16.8403C17.6388 15.2084 16.7708 15.0694 16.7708 14.4792C16.7822 14.3235 16.8539 14.1784 16.9706 14.0746C17.0873 13.9709 17.2398 13.9167 17.3958 13.9236H21.2153C21.7361 13.9236 21.9097 14.184 21.9097 14.809V19.6355C21.9097 20.1563 22.1354 20.3298 22.2916 20.3298C22.6041 20.3298 22.8472 20.1563 23.4201 19.5834C24.6512 18.082 25.6572 16.4093 26.4062 14.6181C26.4827 14.4025 26.6276 14.2179 26.8189 14.0925C27.0101 13.9671 27.2371 13.9078 27.4653 13.9236H29.8958C30.625 13.9236 30.7812 14.2882 30.625 14.809C29.7406 16.7895 28.6464 18.6695 27.3611 20.4167C27.1007 20.816 26.9965 21.0243 27.3611 21.4931C27.6041 21.8576 28.4549 22.5694 29.0278 23.2465C29.8611 24.0777 30.5531 25.0395 31.0763 26.0938C31.2847 26.7709 30.9375 27.1181 30.243 27.1181Z" fill="black"/>
</svg>
